<svg id="Capa_1" enable-background="new 0 0 512 512" height="512" viewBox="0 0 512 512" width="512" xmlns="http://www.w3.org/2000/svg"><g><g><path d="m190.238 218.619h-130.952c-24.209 0-43.833-19.625-43.833-43.833v-130.953c0-24.208 19.625-43.833 43.833-43.833h130.952c24.209 0 43.833 19.625 43.833 43.833v130.952c0 24.209-19.625 43.834-43.833 43.834z" fill="#918291"/><circle cx="124.762" cy="96.765" fill="#ffcebf" r="52.931"/><path d="m59.286 218.619h130.952c4.169 0 8.198-.595 12.018-1.682-5.369-38.003-38.009-67.241-77.494-67.241s-72.125 29.237-77.494 67.241c3.821 1.087 7.849 1.682 12.018 1.682z" fill="#fd9468"/></g><g><g><path d="m452.714 218.619h-130.952c-24.209 0-43.833-19.625-43.833-43.833v-130.953c0-24.208 19.625-43.833 43.833-43.833h130.952c24.209 0 43.833 19.625 43.833 43.833v130.952c0 24.209-19.625 43.834-43.833 43.834z" fill="#918291"/><circle cx="387.238" cy="96.765" fill="#ffcebf" r="52.931"/><path d="m321.762 218.619h130.952c4.169 0 8.198-.595 12.018-1.682-5.369-38.003-38.009-67.241-77.494-67.241s-72.125 29.237-77.494 67.241c3.821 1.087 7.849 1.682 12.018 1.682z" fill="#98d5b9"/></g><g><path d="m486.246 512h-198.015c-5.69 0-10.302-4.612-10.302-10.302v-221.508c0-17.069 13.837-30.905 30.905-30.905h156.808c17.069 0 30.905 13.837 30.905 30.905v221.508c0 5.69-4.612 10.302-10.301 10.302z" fill="#f3f0f3"/><path d="m465.642 249.285h-1.766c1.14 3.223 1.766 6.689 1.766 10.302v44.097c0 103.671-84.042 187.713-187.713 187.713v10.302c0 5.69 4.612 10.302 10.302 10.302h198.015c5.69 0 10.302-4.612 10.302-10.302v-221.509c-.001-17.068-13.838-30.905-30.906-30.905z" fill="#e2dee2"/><path d="m316.045 450.189h142.385c3.983 0 7.211 3.229 7.211 7.211v16.483c0 3.983-3.229 7.211-7.211 7.211h-142.385c-3.983 0-7.211-3.229-7.211-7.211v-16.483c0-3.982 3.229-7.211 7.211-7.211z" fill="#98d5b9"/><path d="m339.38 481.095h119.05c3.983 0 7.211-3.229 7.211-7.211v-16.484c0-3.983-3.228-7.211-7.211-7.211h-63.156c-16.563 13.283-35.423 23.816-55.894 30.906z" fill="#57be92"/><path d="m316.045 388.378h142.385c3.983 0 7.211 3.229 7.211 7.211v16.483c0 3.983-3.229 7.211-7.211 7.211h-142.385c-3.983 0-7.211-3.229-7.211-7.211v-16.482c0-3.983 3.229-7.212 7.211-7.212z" fill="#98d5b9"/><path d="m458.431 419.284c3.983 0 7.211-3.229 7.211-7.211v-16.483c0-3.983-3.228-7.211-7.211-7.211h-12.946c-5.553 10.963-12.146 21.31-19.656 30.905z" fill="#57be92"/><path d="m316.045 326.567h142.385c3.983 0 7.211 3.229 7.211 7.211v16.483c0 3.983-3.229 7.211-7.211 7.211h-142.385c-3.983 0-7.211-3.229-7.211-7.211v-16.483c0-3.982 3.229-7.211 7.211-7.211z" fill="#98d5b9"/><path d="m458.431 357.473c3.983 0 7.211-3.229 7.211-7.211v-16.483c0-1.782-.65-3.41-1.721-4.669-1.315 9.71-3.373 19.183-6.114 28.363z" fill="#57be92"/></g></g><g><path d="m223.77 512h-198.015c-5.69 0-10.302-4.612-10.302-10.302v-221.508c0-17.069 13.837-30.905 30.905-30.905h156.808c17.069 0 30.905 13.837 30.905 30.905v221.508c0 5.69-4.612 10.302-10.301 10.302z" fill="#f3f0f3"/><path d="m203.166 249.285h-1.766c1.14 3.223 1.766 6.689 1.766 10.302v44.097c0 103.671-84.042 187.713-187.713 187.713v10.302c0 5.69 4.612 10.302 10.302 10.302h198.015c5.69 0 10.302-4.612 10.302-10.302v-221.509c-.001-17.068-13.837-30.905-30.906-30.905z" fill="#e2dee2"/><path d="m53.569 450.189h142.385c3.983 0 7.211 3.229 7.211 7.211v16.483c0 3.983-3.229 7.211-7.211 7.211h-142.385c-3.983 0-7.211-3.229-7.211-7.211v-16.483c0-3.982 3.229-7.211 7.211-7.211z" fill="#fd9468"/><path d="m76.904 481.095h119.05c3.982 0 7.211-3.229 7.211-7.211v-16.484c0-3.983-3.229-7.211-7.211-7.211h-63.157c-16.562 13.283-35.422 23.816-55.893 30.906z" fill="#fe7d43"/><path d="m53.569 388.378h142.385c3.983 0 7.211 3.229 7.211 7.211v16.483c0 3.983-3.229 7.211-7.211 7.211h-142.385c-3.983 0-7.211-3.229-7.211-7.211v-16.482c0-3.983 3.229-7.212 7.211-7.212z" fill="#fd9468"/><path d="m195.955 419.284c3.982 0 7.211-3.229 7.211-7.211v-16.483c0-3.983-3.229-7.211-7.211-7.211h-12.946c-5.552 10.963-12.145 21.31-19.656 30.905z" fill="#fe7d43"/></g></g></svg>